<svg width="201" height="39" viewBox="0 0 201 39" fill="none" xmlns="http://www.w3.org/2000/svg">
    <path d="M15.3767 13.4767L21.6301 27.1267C21.6301 26.4767 21.5873 25.3933 21.5873 24.05L20.2167 11.96C17.2184 12.0033 15.3767 13.4767 15.3767 13.4767ZM23.2149 11.9167C22.4868 11.8733 21.8015 11.8733 21.2018 11.9167L21.8871 18.85C22.1013 16.5967 22.5296 14.17 23.2149 11.9167ZM7.83825 23.7033C8.95188 24.05 10.0655 24.44 11.3076 24.9167C11.3076 24.9167 14.9055 26.78 17.6896 27.95L10.3653 18.6333C9.29453 20.2367 8.48073 22.0133 7.83825 23.7033ZM3.12673 30.16C3.34089 28.99 3.59788 27.7767 3.98337 26.65C3.04107 26.4767 2.09877 26.3467 1.19929 26.26C1.67045 27.6467 2.35576 28.9467 3.12673 30.16ZM20.0882 28.9467C20.0882 28.9467 20.9877 29.25 21.416 28.7733L14.4344 14.17C13.2351 15.08 12.1643 16.12 11.222 17.3333L19.6599 28.7733C19.8312 28.86 19.9597 28.9033 20.0882 28.9467ZM38.0348 15.0367C37.4351 12.48 36.3215 10.0967 34.8652 8.06C35.7218 10.27 36.6213 12.6967 37.2638 14.3867C37.5208 14.56 37.8206 14.82 38.0348 15.0367ZM37.0496 17.68C35.2507 16.25 33.5374 15.1233 31.867 14.2567L25.2708 16.25L23.9431 19.63C23.7289 21.7533 23.5576 24.44 23.7289 26.65C23.7289 26.65 24.1144 30.94 22.5724 31.46C22.5724 31.46 20.902 33.1067 16.6616 31.07C16.6616 31.07 12.2499 28.73 6.76745 27.2567C5.91081 30.55 5.69665 33.0633 5.69665 33.28C9.1232 36.8333 13.9632 39 19.2744 39C29.8967 39 38.5488 30.2467 38.5488 19.5C38.5488 19.2833 38.5488 19.0667 38.5488 18.85C37.7778 18.98 37.0496 17.68 37.0496 17.68ZM24.1144 9.57667C24.4999 8.66667 25.0139 7.8 25.5278 7.02C25.5278 7.02 26.9841 4.72333 29.1686 2.77333C26.2988 1.04 22.8723 0 19.2744 0C8.60922 0 0 8.75333 0 19.5C0 20.54 0.0856639 21.4933 0.21416 22.4467C1.71328 22.49 3.38372 22.6633 5.2255 23.01C6.33913 20.28 7.36709 18.4167 7.36709 18.4167C7.36709 18.4167 12.5069 8.79667 24.1144 9.57667ZM24.4142 15.1667L24.7997 15.0367L25.9133 12.2633C25.6563 12.22 25.485 12.1767 25.228 12.1333C24.8854 13.0433 24.5855 14.0833 24.4142 15.1667ZM26.77 12.4367L25.8277 14.7767L30.325 13.6067C29.1257 13.0867 27.9264 12.6967 26.77 12.4367ZM28.1406 7.54C27.5409 8.23333 26.9413 9.01333 26.3845 9.88C28.5261 10.27 30.3678 10.79 31.9526 11.3967L28.1406 7.54ZM35.422 13.0867L32.6808 5.50333C32.2953 5.11333 31.9098 4.76667 31.5243 4.42C30.6677 5.02667 29.7682 5.76333 28.8687 6.67333L33.6231 12.1333C34.3084 12.48 34.9509 12.8267 35.422 13.0867Z" fill="black"/>
    <path d="M59.5026 15.7202C59.372 15.3615 59.1854 15.05 58.9428 14.7857C58.7748 14.5968 58.5042 14.3797 58.131 14.1342C57.7204 13.9266 57.3565 13.7661 57.0393 13.6528C57.2632 13.5206 57.5058 13.3696 57.7671 13.1997C58.0284 12.9731 58.2243 12.756 58.3549 12.5483C58.5229 12.3217 58.6629 12.048 58.7748 11.727C58.8868 11.3872 58.9428 11.019 58.9428 10.6225C58.9428 9.56522 58.5509 8.72501 57.7671 8.10198C56.9833 7.47894 55.9195 7.16741 54.5759 7.16741H49.3973V9.26315H54.296C55.0052 9.26315 55.5837 9.41418 56.0316 9.71628C56.4235 10.0184 56.6195 10.4526 56.6195 11.019C56.6195 11.661 56.3955 12.1235 55.9476 12.4067C55.4811 12.7088 54.8746 12.8599 54.1281 12.8599H49.3973V14.8423H54.6319C55.5276 14.8423 56.2088 15.0028 56.6753 15.3238C57.1232 15.6636 57.3472 16.1167 57.3472 16.6831C57.3472 17.2873 57.1232 17.7499 56.6753 18.0708C56.2088 18.3918 55.5836 18.5522 54.7998 18.5522H49.3972V20.648H54.7718C55.4997 20.648 56.1715 20.563 56.7873 20.3931C57.4219 20.2043 57.935 19.9683 58.3269 19.6851C58.7189 19.4019 59.0548 19.0148 59.3347 18.524C59.5586 18.0708 59.6706 17.5422 59.6706 16.938C59.6706 16.466 59.6146 16.06 59.5026 15.7202ZM69.776 12.7749V7.13902H67.4246V20.6763H69.776V12.7749ZM88.8954 20.6196L84.3327 14.729L82.7371 16.4849L86.0682 20.6196L88.8954 20.6196ZM85.7881 7.1673L79.4339 13.8225V7.1673H77.1384V20.6194H79.4339V17.4475L88.8674 7.1673H85.7881ZM92.2824 7.1673H102.248V9.31966H92.2824V7.1673ZM92.2824 18.4956H102.22V20.6479H92.2824V18.4956ZM92.2824 12.7749H101.268V14.8989H92.2824V12.7749ZM127.245 20.6479H129.597V10.7074L127.245 14.1908V20.6479ZM129.597 7.1673H127.078L122.963 13.6246L118.876 7.1673H116.357V20.6481H118.708V11.0758L122.907 17.4479H122.991L126.658 11.9538C126.677 11.8783 127.656 10.2829 129.597 7.16766L129.597 7.1673ZM141.13 20.6479H143.649L138.778 7.13892H136.231L139.058 15.2104L141.13 20.6479ZM130.829 20.6479H133.292L136.203 13.4544L134.999 10.2259L130.829 20.6479ZM152.803 9.37639H157.03V7.16737H146.225V9.37639H152.803ZM150.452 11.5855H152.803V20.6481H150.452V11.5855ZM171.614 20.6479L168.003 15.5501C168.488 15.399 168.917 15.2197 169.291 15.012C169.701 14.7477 170.037 14.4551 170.298 14.1341C170.597 13.7754 170.812 13.3883 170.942 12.9729C171.11 12.5198 171.194 12.01 171.194 11.4436C171.194 10.7828 171.082 10.1881 170.858 9.6594C170.634 9.14961 170.308 8.70594 169.879 8.32832C169.468 7.96959 168.945 7.68637 168.311 7.47869C167.658 7.27102 166.967 7.16716 166.239 7.16716H160.305V9.31952H166.043C166.921 9.31952 167.602 9.50834 168.087 9.88593C168.572 10.2635 168.815 10.8299 168.815 11.5852C168.815 12.2837 168.572 12.8313 168.087 13.2278C167.602 13.6432 166.93 13.8508 166.071 13.8508H160.305V20.6478H162.628V15.9465H165.567L168.843 20.6478L171.614 20.6479ZM181.468 12.7749V7.13902H179.116V20.6763H181.468V12.7749ZM193.364 17.3061L194.624 15.6069L194.596 15.5503L193.364 17.3061ZM200.671 7.1673H197.983L194.652 12.01L191.349 7.1673H188.578L193.253 13.7942L188.41 20.6477H191.405L200.671 7.1673ZM200.839 20.6479L197.144 15.3521L195.744 17.2496L198.095 20.6481L200.839 20.6479Z" fill="black"/>
    <path d="M52.939 27.72H50.9849V31.1797H52.939L53.4275 30.6854H54.5878V31.6122L53.6718 32.5389H50.3132L49.3972 31.6122V27.2876L50.3132 26.3608H53.6718L54.5878 27.2876V28.2143H53.4275L52.939 27.72ZM60.6331 26.3608L61.5491 27.2875V31.6121L60.6331 32.5388H57.0914L56.1754 31.6121V27.2875L57.0914 26.3608H60.6331ZM59.9616 31.1797V27.7201H57.7632V31.1797H59.9616ZM67.6557 26.3608H69.2434V32.5389H67.6557V29.0792L66.5809 31.1797H65.7871L64.7246 29.0792V32.5389H63.1369V26.3608H64.7246L66.1902 29.1656L67.6557 26.3608ZM70.8311 32.5389V26.3608H75.289L76.205 27.2875V29.8823L75.289 30.809H72.419V32.5388L70.8311 32.5389ZM72.4188 29.4499H74.6171V27.7201H72.4188V29.4499ZM77.7925 32.5389V27.2876L78.7085 26.3608H82.2503L83.1663 27.2876V32.5389H81.5786V30.8091H79.3802V32.5389H77.7925ZM79.3802 29.4499H81.5786V27.7201H79.3802V29.4499ZM84.3265 27.72V26.3608H89.5171V27.72H87.7095V32.5389H86.1218V27.72H84.3265ZM90.4941 32.5389V31.3033H90.9826V27.5966H90.4941V26.361H93.0588V27.5966H92.5702V31.3033H93.0588V32.5389H90.4941ZM99.9593 27.2876V28.795L99.312 29.4499L99.9593 30.1047V31.6122L99.0433 32.5389H94.4635V26.3608H99.0433L99.9593 27.2876ZM98.3713 28.7703V27.7201H96.0508V28.7703H98.3713ZM98.3713 31.1797V30.1295H96.0508V31.1797H98.3713ZM101.364 32.5389V31.3033H101.852V27.5966H101.364V26.361H103.928V27.5966H103.44V31.3033H103.928V32.5389H101.364ZM105.333 31.6122V26.3608H106.921V31.1797H110.218V32.5389H106.249L105.333 31.6122ZM111.317 32.5389V31.3033H111.806V27.5966H111.317V26.361H113.882V27.5966H113.393V31.3033H113.882V32.5389H111.317ZM114.859 27.72V26.3608H120.05V27.72H118.242V32.5389H116.654V27.72H114.859ZM126.645 26.3608V27.1022L124.568 30.5001V32.5388H122.981V30.4877L120.905 27.1021V26.3608H122.309L123.775 28.8814L125.24 26.3608L126.645 26.3608ZM135.194 27.72H132.935V28.7703H135.927L136.843 29.697V31.6122L135.927 32.5389H132.263L131.347 31.6122V30.6855H132.507L132.996 31.1797H135.255V30.1295H132.263L131.347 29.2028V27.2876L132.263 26.3608H135.927L136.843 27.2876V28.2143H135.682L135.194 27.72ZM142.888 26.3608L143.804 27.2875V31.6121L142.888 32.5388H139.346L138.43 31.6121V27.2875L139.346 26.3608H142.888ZM142.216 31.1797V27.7201H140.018V31.1797H142.216ZM150.888 27.2876V29.4499L149.972 30.3766L150.888 31.7975V32.5389H149.422L148.152 30.4384H146.979V32.5389H145.392V26.3608H149.971L150.888 27.2876ZM149.3 29.0792V27.7201H146.979V29.0792H149.3ZM152.048 27.72V26.3608H157.238V27.72H155.431V32.5389H153.843V27.72H152.048ZM163.589 27.72H159.986V28.7703H163.1V30.1295H159.986V31.1797H163.589V32.5389H159.314L158.398 31.6122V26.3608H163.589L163.589 27.72ZM169.634 26.3608L170.55 27.2875V31.6121L169.634 32.5388H165.176V26.3607L169.634 26.3608ZM168.963 31.1797V27.7201H166.765V31.1797H168.963Z" fill="black"/>
</svg>
